<svg width="123" height="123" viewBox="0 0 123 123" fill="none" xmlns="http://www.w3.org/2000/svg">
<path d="M120.206 55.801L66.7142 2.31103C63.635 -0.770303 58.6386 -0.770303 55.5553 2.31103L44.4485 13.4198L58.5381 27.51C61.8132 26.4042 65.5684 27.1464 68.1777 29.7562C70.8028 32.3824 71.5381 36.1698 70.4042 39.4562L83.985 53.0354C87.2714 51.9026 91.0605 52.6349 93.6856 55.2636C97.3523 58.9292 97.3523 64.8714 93.6856 68.5401C90.0163 72.2089 84.0752 72.2089 80.4042 68.5401C77.6465 65.7797 76.9642 61.7272 78.3626 58.3292L65.696 45.6636V78.9928C66.5892 79.4354 67.4329 80.025 68.1777 80.7677C71.8444 84.434 71.8444 90.3756 68.1777 94.0474C64.511 97.7125 58.5657 97.7125 54.9017 94.0474C51.235 90.3756 51.235 84.434 54.9017 80.7677C55.808 79.8625 56.8574 79.1777 57.9772 78.7193V45.0818C56.8574 44.6234 55.8105 43.9444 54.9017 43.0329C52.1246 40.2568 51.4564 36.1802 52.8809 32.7693L38.9902 18.8766L2.31054 55.5532C-0.770182 58.637 -0.770182 63.6334 2.31054 66.7146L55.8053 120.205C58.885 123.285 63.8798 123.285 66.9642 120.205L120.206 66.9625C123.288 63.8808 123.288 58.8818 120.206 55.801Z" fill="#8A8A8F"/>
</svg>
