<svg width="416" height="512" viewBox="0 0 416 512" fill="none" xmlns="http://www.w3.org/2000/svg">
<path d="M411.36 100.64L315.36 4.64001C312.341 1.64501 308.253 -0.0239888 304 1.11586e-05H48C21.49 1.11586e-05 0 21.49 0 48V464C0 490.51 21.49 512 48 512H368C394.51 512 416 490.51 416 464V112C416.025 107.747 414.355 103.66 411.36 100.64ZM48 480C39.163 480 32 472.837 32 464V390.56L128 294.56L313.44 480H48ZM384 464C384 472.837 376.837 480 368 480H358.56L246.56 368L288 326.56L384 422.56V464ZM384 377.44L299.36 292.8C293.119 286.596 283.041 286.596 276.8 292.8L224 345.44L139.36 260.8C133.119 254.596 123.041 254.596 116.8 260.8L32 345.44V48C32 39.163 39.163 32 48 32H288V96C288 113.673 302.327 128 320 128H384V377.44Z" fill="#A074C4"/>
<path d="M160 80C124.654 80 96 108.654 96 144C96 179.346 124.654 208 160 208C195.346 208 224 179.346 224 144C224 108.654 195.346 80 160 80ZM160 176C142.327 176 128 161.673 128 144C128 126.327 142.327 112 160 112C177.673 112 192 126.327 192 144C192 161.673 177.673 176 160 176Z" fill="#A074C4"/>
</svg>
