<svg width="356" height="356" viewBox="0 0 356 356" fill="none" xmlns="http://www.w3.org/2000/svg">
<path d="M289.5 286C320.102 286 345 257.681 345 222.876C345 188.071 320.102 159.753 289.5 159.753H255.5C246.953 159.753 240 151.845 240 142.124C240 132.403 246.953 124.495 255.5 124.495H324V79H255.5C224.898 79 200 107.319 200 142.124C200 176.929 224.898 205.247 255.5 205.247H289.5C298.047 205.247 305 213.155 305 222.876C305 232.597 298.047 240.505 289.5 240.505H200V286H289.5Z" fill="#ECD401"/>
<path d="M75 286C111.945 286 142 251.817 142 209.797V79H102V209.797C102 226.728 89.8867 240.505 75 240.505C60.1133 240.505 48 226.728 48 209.797H8C8 251.817 38.0547 286 75 286Z" fill="#ECD401"/>
</svg>
