<svg width="432" height="490" viewBox="0 0 432 490" fill="none" xmlns="http://www.w3.org/2000/svg">
<path d="M425.05 150.8L271.05 5.2C267.95 2.1 262.75 0 257.55 0H21.45C10.05 0 0.650024 9.4 0.650024 20.8V469.2C0.650024 480.6 10.05 490 21.45 490H410.55C421.95 490 431.35 480.6 431.35 468.2V165.4C431.35 160.2 429.25 155 425.05 150.8ZM277.35 68.3L360.05 146.7H277.35V68.3ZM390.75 449.4H41.15V41.6H236.75V166.4C236.75 177.8 246.15 187.2 257.55 187.2H390.75V449.4Z" fill="#8A8A8F"/>
<path d="M272.85 302.3C260.55 302.3 250.45 292.3 250.45 279.9C250.45 267.5 260.45 257.5 272.85 257.5C279.05 257.5 284.85 260 289.15 264.6C294.85 270.6 304.25 270.9 310.25 265.2C316.25 259.5 316.55 250.1 310.85 244.1C301.05 233.6 287.15 227.6 272.75 227.6C243.95 227.6 220.45 251.1 220.45 279.9C220.45 308.7 243.95 332.2 272.75 332.2C285.05 332.2 295.15 342.2 295.15 354.6C295.15 367 285.15 377 272.75 377C266.55 377 260.75 374.5 256.45 369.9C250.75 363.9 241.35 363.6 235.35 369.3C229.35 375 229.05 384.4 234.75 390.4C244.55 400.9 258.45 406.9 272.85 406.9C301.65 406.9 325.15 383.4 325.15 354.6C325.15 325.8 301.75 302.3 272.85 302.3Z" fill="#8A8A8F"/>
<path d="M184.05 227.6C175.75 227.6 169.05 234.3 169.05 242.6V360.8C169.05 369.8 161.75 377 152.85 377C143.85 377 136.65 369.7 136.65 360.8V349.5C136.65 341.2 129.95 334.5 121.65 334.5C113.35 334.5 106.65 341.2 106.65 349.5V360.8C106.65 386.2 127.35 406.9 152.75 406.9C178.15 406.9 198.85 386.2 198.85 360.8V242.6C199.05 234.3 192.35 227.6 184.05 227.6Z" fill="#8A8A8F"/>
</svg>
