<svg width="26" height="20" viewBox="0 0 26 20" fill="none" xmlns="http://www.w3.org/2000/svg">
<path d="M5 7V3C5 2.449 5.448 2 6 2C6.553 2 7 1.552 7 1C7 0.448 6.553 0 6 0C4.346 0 3 1.346 3 3V7C3 8.103 2.103 9 1 9C0.447 9 0 9.448 0 10C0 10.552 0.447 11 1 11C2.103 11 3 11.897 3 13V17C3 18.654 4.346 20 6 20C6.553 20 7 19.552 7 19C7 18.448 6.553 18 6 18C5.448 18 5 17.551 5 17V13C5 11.8 4.458 10.734 3.618 10C4.458 9.266 5 8.2 5 7Z" fill="#8A8A8F"/>
<path d="M20.5 7V3C20.5 2.449 20.052 2 19.5 2C18.947 2 18.5 1.552 18.5 1C18.5 0.448 18.947 0 19.5 0C21.154 0 22.5 1.346 22.5 3V7C22.5 8.103 23.397 9 24.5 9C25.053 9 25.5 9.448 25.5 10C25.5 10.552 25.053 11 24.5 11C23.397 11 22.5 11.897 22.5 13V17C22.5 18.654 21.154 20 19.5 20C18.947 20 18.5 19.552 18.5 19C18.5 18.448 18.947 18 19.5 18C20.052 18 20.5 17.551 20.5 17V13C20.5 11.8 21.042 10.734 21.882 10C21.042 9.266 20.5 8.2 20.5 7Z" fill="#8A8A8F"/>
<path d="M13 8C13.8284 8 14.5 7.32843 14.5 6.5C14.5 5.67157 13.8284 5 13 5C12.1716 5 11.5 5.67157 11.5 6.5C11.5 7.32843 12.1716 8 13 8Z" fill="#8A8A8F"/>
<path d="M13 12C12.447 12 12 12.448 12 13V16C12 16.552 12.447 17 13 17C13.553 17 14 16.552 14 16V13C14 12.448 13.553 12 13 12Z" fill="#8A8A8F"/>
</svg>
