<svg width="490" height="490" viewBox="0 0 490 490" fill="none" xmlns="http://www.w3.org/2000/svg">
<path d="M469.2 0H20.8C9.4 0 0 9.4 0 20.8V469.2C0 480.6 9.4 490 20.8 490H470.2C481.6 490 490 481.7 490 469.2V20.8C490 9.4 480.6 0 469.2 0ZM449.4 41.6V160.8L299.5 332.2L203.9 194.6C199.7 189.4 183.6 178.6 170.6 194.6L41.6 360.1V41.6H449.4ZM41.6 427.4L187.2 240.3L272 363.5L196.8 449.4H41.6V427.4ZM252.6 449.4L449.5 223.6V449.4H252.6Z" fill="#8A8A8F"/>
<path d="M311.1 200.8C346.5 200.8 375.6 171.7 375.6 136.3C375.6 100.9 346.5 71.8 311.1 71.8C275.7 71.8 246.6 100.9 246.6 136.3C246.6 171.7 275.7 200.8 311.1 200.8ZM311.1 112.4C324.6 112.4 335 122.8 335 136.3C335 149.8 324.6 160.2 311.1 160.2C297.6 160.2 287.2 149.8 287.2 136.3C287.2 122.8 297.5 112.4 311.1 112.4Z" fill="#8A8A8F"/>
</svg>
