<svg width="372" height="372" viewBox="0 0 372 372" fill="none" xmlns="http://www.w3.org/2000/svg">
<g clip-path="url(#clip0)">
<path d="M186.691 136.153C182.982 131.207 176.799 128.735 169.382 128.735H98.9079C85.3079 128.735 74.181 138.627 71.7079 150.99L70.4719 160.882C69.2359 167.064 71.7089 174.482 75.4169 179.428C79.1259 184.373 85.3089 186.846 92.7259 186.846H163.2C175.564 186.846 186.691 176.956 190.4 164.591L191.636 154.699C192.872 148.517 190.4 141.099 186.691 136.153ZM164.436 159.645C164.436 160.881 163.199 162.117 161.963 162.117H93.9629L95.1989 154.699C95.1989 153.463 96.4359 152.227 97.6719 152.227H165.672L164.436 159.645Z" fill="#CECECE"/>
<path d="M362.254 111.426C356.034 104.168 347.197 99.5329 336.488 98.2209C336.453 97.6719 336.396 97.1269 336.29 96.5909C331.345 78.0449 311.563 64.4459 289.308 64.4459H197.91L166.909 32.2979C164.436 29.8239 161.964 28.5879 158.255 28.5879H48.219C19.782 28.5869 0 45.8959 0 69.3879V289.461C0 302.63 5.962 316.85 15.643 327.267C15.79 327.44 15.924 327.617 16.073 327.789C23.491 337.679 34.619 342.625 46.982 342.625H48.218H289.31C315.273 342.625 337.528 317.898 342.473 294.405L370.909 144.805C372.145 132.442 369.672 120.079 362.254 111.426ZM24.729 69.3909C24.728 57.0269 39.564 53.3169 48.219 53.3169H153.31L182.983 84.2259C185.184 86.4269 187.874 87.6419 190.618 87.8839C192.338 88.7159 194.345 89.1729 196.582 89.1729H289.31C297.829 89.1729 305.619 92.7979 309.915 97.8259H87.783C61.819 97.8259 39.564 115.135 35.856 138.626L24.728 198.619V69.3909H24.729ZM346.181 141.101L317.745 290.701C315.272 304.301 302.909 317.9 290.545 317.9H289.31H48.219C43.431 317.9 38.415 314.92 34.253 310.543C31.817 306.372 31.111 302.061 32.146 296.881L60.582 143.572C61.819 131.208 74.182 122.554 87.782 122.554L323.927 123.791H330.109C336.291 123.791 341.236 125.027 343.709 128.736C346.181 131.209 347.417 136.156 346.181 141.101Z" fill="#BDBDBD"/>
</g>
<defs>
<clipPath id="clip0">
<rect width="371.213" height="371.213" fill="white"/>
</clipPath>
</defs>
</svg>
