<svg width="24" height="24" viewBox="0 0 24 24" fill="none" xmlns="http://www.w3.org/2000/svg">
<path d="M21 7V11L19.5 10L13 9.5L10.5 5L9 4H18C19.6569 4 21 5.34315 21 7Z" fill="#75757A" fill-opacity="0.25"/>
<path d="M3 10C3 7.17157 3 5.75736 3.87868 4.87868C4.75736 4 6.17157 4 9 4H15C17.8284 4 19.2426 4 20.1213 4.87868C21 5.75736 21 7.17157 21 10V14C21 16.8284 21 18.2426 20.1213 19.1213C19.2426 20 17.8284 20 15 20H9C6.17157 20 4.75736 20 3.87868 19.1213C3 18.2426 3 16.8284 3 14V10Z" stroke="#75757A" stroke-width="1.2"/>
<path d="M8 4V4C8.73962 4 9.10944 4 9.43492 4.11591C9.7015 4.21085 9.9449 4.36128 10.149 4.55726C10.3983 4.79654 10.5637 5.12731 10.8944 5.78885L11.8944 7.78885C12.4323 8.86469 12.7013 9.4026 13.1846 9.7013C13.6679 10 14.2693 10 15.4721 10H17C18.8856 10 19.8284 10 20.4142 10.5858C21 11.1716 21 12.1144 21 14V16" stroke="#75757A" stroke-width="1.2"/>
</svg>
