<svg width="420" height="491" viewBox="0 0 420 491" fill="none" xmlns="http://www.w3.org/2000/svg">
<path d="M412.25 139.7L261.15 5.2C256.95 2.1 252.85 0 247.55 0H21.3499C9.84995 0 0.449951 9.4 0.449951 20.9V469.2C0.449951 480.7 9.84995 490.1 21.3499 490.1H398.75C410.25 490.1 418.55 480.7 419.65 469.2V155.3C419.55 149.1 416.45 143.9 412.25 139.7ZM268.45 66.8L360.45 149.1H268.45V66.8ZM42.15 40.7H226.65V168.9C226.65 180.4 236.05 189.8 247.55 189.8H377.85V449.4H42.15V40.7Z" fill="#8A8A8F"/>
<path d="M290.35 250.2H128.75C117.25 250.2 107.85 259.6 107.85 271.1C107.85 282.6 117.25 292 128.75 292H291.35C301.75 292 311.15 283.7 311.15 271.1C311.15 259.6 301.75 250.2 290.35 250.2Z" fill="#8A8A8F"/>
<path d="M290.35 356.6H128.75C117.25 356.6 107.85 366 107.85 377.5C107.85 389 117.25 398.4 128.75 398.4H291.35C301.75 398.4 311.15 389 311.15 377.5C311.15 366 301.75 356.6 290.35 356.6Z" fill="rgba(138, 138, 143, 0.62)"/>
</svg>
