<svg width="416" height="512" viewBox="0 0 416 512" fill="none" xmlns="http://www.w3.org/2000/svg">
<path d="M411.36 100.64L315.36 4.64001C312.341 1.64501 308.253 -0.0239888 304 1.11586e-05H48C21.49 1.11586e-05 0 21.49 0 48V464C0 490.51 21.49 512 48 512H368C394.51 512 416 490.51 416 464V112C416.025 107.747 414.355 103.66 411.36 100.64ZM384 464C384 472.837 376.837 480 368 480H48C39.163 480 32 472.837 32 464V48C32 39.163 39.163 32 48 32H288V96C288 113.673 302.327 128 320 128H384V464Z" fill="#BDBDBD" fill-opacity="0.9"/>
<path d="M224 224H192C183.163 224 176 231.163 176 240V272C176 280.837 183.163 288 192 288H224C232.837 288 240 280.837 240 272V240C240 231.164 232.837 224 224 224Z" fill="#BDBDBD" fill-opacity="0.9"/>
<path d="M288 224C279.163 224 272 231.163 272 240V272C272 280.837 279.163 288 288 288H320C328.837 288 336 280.837 336 272V240C336 231.163 328.837 224 320 224H288Z" fill="#BDBDBD" fill-opacity="0.9"/>
<path d="M128 224H96C87.163 224 80 231.163 80 240V272C80 280.837 87.163 288 96 288H128C136.837 288 144 280.837 144 272V240C144 231.164 136.837 224 128 224Z" fill="#BDBDBD" fill-opacity="0.9"/>
</svg>
