<svg width="370" height="370" viewBox="0 0 370 370" fill="none" xmlns="http://www.w3.org/2000/svg">
<g clip-path="url(#clip0)">
<path d="M323.929 63.056H201.529L170.62 32.146C168.147 29.673 165.674 28.437 161.965 28.437H44.509C19.782 28.437 0 49.455 0 74.182V295.491C0 320.218 19.782 341.236 44.509 341.236H323.927C348.654 341.236 369.673 321.454 369.673 295.491V108.801C369.674 84.074 348.656 63.056 323.929 63.056ZM24.729 75.419C24.728 63.055 33.383 54.401 44.51 54.401L157.019 55.637L185.455 84.074C186.691 86.547 189.164 87.783 191.637 89.019C194.109 89.019 196.582 89.019 199.055 89.019H323.927C332.309 89.019 339.986 94.632 343.267 102.156C337.351 99.293 330.782 97.673 323.927 97.673H44.511C37.386 97.673 30.678 99.426 24.729 102.501V75.419V75.419ZM344.947 296.729C344.946 307.855 335.056 317.747 323.928 317.747H44.51C34.619 317.747 24.728 307.857 24.728 296.729V143.42C24.728 132.294 33.382 122.402 44.51 122.402H323.928C335.056 122.402 344.946 132.292 344.946 143.42V296.729H344.947Z" fill="#BDBDBD"/>
<path d="M136.001 145.892H71.7099C58.1099 145.892 45.7469 157.02 45.7469 171.855V178.037C45.7469 191.637 56.8739 204 71.7099 204H136.001C149.601 204 161.965 191.636 161.964 178.037V171.855C161.964 158.255 150.837 145.892 136.001 145.892ZM137.237 176.8C137.237 176.8 137.237 178.036 136.001 178.036H71.7099C71.7099 178.036 70.4739 178.036 70.4739 176.8V170.618C70.4739 170.618 70.4739 169.382 71.7099 169.382H136.001C136.001 169.382 137.237 169.382 137.237 170.618V176.8V176.8Z" fill="#BDBDBD"/>
</g>
<defs>
<clipPath id="clip0">
<rect width="369.674" height="369.674" fill="white"/>
</clipPath>
</defs>
</svg>
