<svg width="489" height="489" viewBox="0 0 489 489" fill="none" xmlns="http://www.w3.org/2000/svg">
<path d="M468.2 489H20.8C9.4 489 0 479.6 0 468.2V20.8C0 9.4 9.4 0 20.8 0H169.6C176.9 0 184.2 4.2 187.3 11.4L215.4 66.5H468.2C479.6 66.5 489 75.9 489 87.3V469.1C489 479.6 479.6 489 468.2 489ZM40.6 448.4H448.4V107.2H202.9C195.6 107.2 188.3 103 185.2 95.8L157.1 40.7H40.6V448.4Z" fill="#8A8A8F"/>
<path d="M326.7 306.9L244.5 224.7L162.3 306.9C154 315.2 141.5 315.2 133.2 306.9C124.9 298.6 124.9 286.1 133.2 277.8L230 181C238.3 172.7 250.8 172.7 259.1 181L355.9 277.8C364.2 286.1 364.2 298.6 355.9 306.9C352.1 310.8 339.4 318.6 326.7 306.9Z" fill="#8A8A8F"/>
</svg>
